<?xml version="1.0" standalone="no"?>
<!DOCTYPE svg PUBLIC "-//W3C//DTD SVG 20010904//EN"
 "http://www.w3.org/TR/2001/REC-SVG-20010904/DTD/svg10.dtd">
<svg version="1.0" xmlns="http://www.w3.org/2000/svg"
 width="512.000000pt" height="512.000000pt" viewBox="0 0 512.000000 512.000000"
 preserveAspectRatio="xMidYMid meet">
<metadata>
Created by potrace 1.16, written by Peter Selinger 2001-2019
</metadata>
<g transform="translate(0.000000,512.000000) scale(0.100000,-0.100000)"
fill="#000000" stroke="none">
<path d="M2260 4785 c-654 -92 -1219 -449 -1583 -1000 -81 -123 -198 -365
-246 -510 -79 -240 -111 -445 -111 -715 0 -360 66 -658 214 -965 321 -668 915
-1116 1656 -1250 126 -23 481 -32 621 -15 148 16 325 55 464 101 143 48 385
164 510 246 551 361 912 937 1001 1593 18 135 18 445 0 580 -66 489 -275 922
-616 1274 -183 189 -378 330 -625 451 -230 113 -442 177 -689 210 -143 18
-461 18 -596 0z m548 -220 c727 -90 1353 -573 1627 -1254 145 -363 182 -769
104 -1155 -59 -292 -207 -612 -384 -831 -70 -87 -187 -215 -195 -215 -4 0 -10
84 -13 188 -7 248 -37 377 -131 577 -106 225 -282 432 -479 561 -75 50 -232
129 -287 145 l-35 10 85 87 c137 140 197 280 207 483 11 229 -66 430 -224 581
-145 137 -322 208 -523 208 -209 0 -402 -81 -542 -227 -103 -108 -162 -222
-192 -365 -54 -261 29 -529 218 -706 l64 -60 -61 -22 c-179 -65 -399 -217
-529 -367 -116 -133 -224 -321 -278 -483 -46 -137 -62 -239 -69 -430 l-7 -185
-63 65 c-418 429 -622 1043 -545 1642 142 1105 1149 1889 2252 1753z m-152
-846 c182 -33 343 -175 406 -357 32 -94 32 -230 0 -324 -66 -191 -229 -329
-426 -360 -280 -43 -553 160 -598 445 -54 352 265 660 618 596z m134 -1294
c233 -49 430 -155 595 -320 190 -189 302 -419 335 -685 5 -46 10 -180 10 -296
l0 -212 -68 -45 c-222 -146 -489 -250 -782 -304 -134 -25 -505 -24 -640 0
-295 55 -560 158 -783 305 l-69 45 5 266 c7 342 26 432 134 643 174 336 499
565 878 617 93 13 292 6 385 -14z"/>
</g>
</svg>
